# xmcd CD database file
#
# Track frame offsets:
#	300
#	23615
#	39557
#	56046
#	76843
#	90128
#	111804
#	127341
#	140539
#	162364
#	175960
#	189777
#	206765
#	220246
#	243592
#	264891
#	274908
#	295344
#	312669
#	332622
#
# Disc length: 4595 seconds
#
# Revision: 0
# Processed by: cddbd v1.5.2PL0 Copyright (c) Steve Scherf et al.
# Submitted via: CDex 1.70beta2
#
DISCID=2611ef14
DTITLE=Louisiana Hot Seven - Lebendige Erinnerungen
DYEAR=2016
DGENRE=Jazz
TTITLE0=East Coast Trot
TTITLE1=Dippermouth Blues
TTITLE2=Cake Walking Babies
TTITLE3=Savoy Blues
TTITLE4=Since My Best Gal Turned Me Down
TTITLE5=In The Shade Of The Old Apple Tree
TTITLE6=She Is Crying For Me
TTITLE7=Kansas City Stomp
TTITLE8=You Made Me Love You
TTITLE9=Mabel's Dream
TTITLE10=Copenhagen
TTITLE11=Someday Sweetheart
TTITLE12=I'm Crazy About My Baby
TTITLE13=Every Evening
TTITLE14=Gatemouth
TTITLE15=Mandy Lee Blues
TTITLE16=Stomp Off Let's Go
TTITLE17=What's The Matter With The Mill
TTITLE18=Nobody's Sweetheart
TTITLE19=You Rascal You
EXTD=YEAR: 2016
EXTT0=
EXTT1=
EXTT2=
EXTT3=
EXTT4=
EXTT5=
EXTT6=
EXTT7=
EXTT8=
EXTT9=
EXTT10=
EXTT11=
EXTT12=
EXTT13=
EXTT14=
EXTT15=
EXTT16=
EXTT17=
EXTT18=
EXTT19=
PLAYORDER=
